<?xml version="1.0" encoding="utf-8"?>
<!-- Generator: Adobe Illustrator 22.1.0, SVG Export Plug-In . SVG Version: 6.00 Build 0)  -->
<svg version="1.1" xmlns="http://www.w3.org/2000/svg" xmlns:xlink="http://www.w3.org/1999/xlink" x="0px" y="0px"
	 viewBox="0 0 800 800" style="enable-background:new 0 0 800 800;" xml:space="preserve">
<style type="text/css">
	.st0{display:none;}
	.st1{display:inline;opacity:0.35;fill:#5160B5;enable-background:new    ;}
	.st2{opacity:0.35;fill:#DD5151;}
</style>
<g id="Capa_2_1_" class="st0">
	<path class="st1" d="M396.5,205.5C289.6,205.5,203,292.1,203,399h-2.5C93.6,399.1,7,485.7,7,592.6s86.6,193.5,193.5,193.5H791
		V592.6V399.1V205.5C791,98.6,704.4,12,597.5,12h-4.9C485.6,12,399,98.6,399,205.5"/>
</g>
<g id="Capa_3">
	<path class="st2" d="M713.2,12v242.6H446c-79.7,0-144.5,64.8-144.5,144.5c0,79.7,64.8,144.5,144.5,144.5h267.1v242.6H446
		c-213.4,0-387-173.6-387-387C59,185.6,232.6,12,446,12H713.2z"/>
</g>
</svg>
