<?xml version="1.0" encoding="utf-8"?>
<!-- Generator: Adobe Illustrator 22.1.0, SVG Export Plug-In . SVG Version: 6.00 Build 0)  -->
<svg version="1.1" id="Capa_2" xmlns="http://www.w3.org/2000/svg" xmlns:xlink="http://www.w3.org/1999/xlink" x="0px" y="0px"
	 viewBox="0 0 800 800" style="enable-background:new 0 0 800 800;" xml:space="preserve">
<style type="text/css">
	.st0{fill:url(#SVGID_1_);}
</style>
<linearGradient id="SVGID_1_" gradientUnits="userSpaceOnUse" x1="11" y1="398.713" x2="789.4431" y2="398.713">
	<stop  offset="0" style="stop-color:#E9B130"/>
	<stop  offset="1" style="stop-color:#E8AD32;stop-opacity:0"/>
</linearGradient>
<path class="st0" d="M614.7,264.5l90.6,24.4c112.2,30.2,112.2,189.4,0,219.6l-90.6,24.4c-39.1,10.5-69.7,41.1-80.2,80.2L510,703.8
	c-30.2,112.2-189.4,112.2-219.6,0L266,613.1c-10.5-39.1-41.1-69.7-80.2-80.2l-90.6-24.4C-17,478.3-17,319.1,95.1,288.9l90.6-24.4
	c39.1-10.5,69.7-41.1,80.2-80.2l24.4-90.6c30.2-112.2,189.4-112.2,219.6,0l24.4,90.6C545,223.4,575.5,254,614.7,264.5"/>
</svg>
