<?xml version="1.0" encoding="utf-8"?>
<!-- Generator: Adobe Illustrator 22.1.0, SVG Export Plug-In . SVG Version: 6.00 Build 0)  -->
<svg version="1.1" id="Capa_1" xmlns="http://www.w3.org/2000/svg" xmlns:xlink="http://www.w3.org/1999/xlink" x="0px" y="0px"
	 viewBox="0 0 800 800" style="enable-background:new 0 0 800 800;" xml:space="preserve">
<style type="text/css">
	.st0{display:none;}
	.st1{display:inline;opacity:0.3;fill:#5160B5;enable-background:new    ;}
	.st2{opacity:0.5;fill:#FF5050;}
</style>
<g id="Capa_1_1_" class="st0">
	<path class="st1" d="M399.5,792C184.8,792,10,617.3,10,402.5C10,187.8,184.8,13,399.5,13h260.7C731.3,13,789,70.7,789,141.8v260.7
		C789,617.3,614.3,792,399.5,792 M399.5,270.7c-72.7,0-131.9,59.1-131.9,131.9c0,72.7,59.2,131.8,131.9,131.8
		s131.8-59.2,131.8-131.8V270.7H399.5z"/>
</g>
<path class="st2" d="M402.2,160.6l69-112.5c43.3-70.5,151.9-25.5,132.6,54.9L573,231.4l128.4-30.8c80.5-19.3,125.5,89.4,54.9,132.6
	l-112.5,69l112.5,69c70.5,43.3,25.5,151.9-54.9,132.6L573,573l30.8,128.4c19.3,80.5-89.4,125.5-132.6,54.9l-69-112.5l-69,112.5
	c-43.3,70.7-152,25.7-132.7-54.7l30.8-128.4L102.9,604C22.4,623.3-22.6,514.6,48,471.4l112.5-69L48,333.4
	c-70.5-43.3-25.5-151.9,54.9-132.6l128.4,30.8L200.5,103c-19.3-80.5,89.4-125.5,132.6-55L402.2,160.6z"/>
</svg>
