<?xml version="1.0" encoding="utf-8"?>
<!-- Generator: Adobe Illustrator 22.1.0, SVG Export Plug-In . SVG Version: 6.00 Build 0)  -->
<svg version="1.1" id="Capa_2" xmlns="http://www.w3.org/2000/svg" xmlns:xlink="http://www.w3.org/1999/xlink" x="0px" y="0px"
	 viewBox="0 0 800 800" style="enable-background:new 0 0 800 800;" xml:space="preserve">
<style type="text/css">
	.st0{opacity:0.5;fill:#96C58B;}
</style>
<path class="st0" d="M719.2,399.5c0-43.8-32.7-83.7-86.2-113.4c53.4-29.8,86.2-69.6,86.2-113.4C719.2,80.6,575.1,6,397.4,6
	C219.7,6,75.6,80.6,75.6,172.6c0,43.8,32.7,83.7,86.2,113.4c-53.4,29.7-86.2,69.6-86.2,113.4c0,43.8,32.7,83.7,86.2,113.4
	c-53.4,29.8-86.2,69.6-86.2,113.4c0,92,144.1,166.6,321.8,166.6c177.7,0,321.8-74.6,321.8-166.6c0-43.8-32.7-83.7-86.2-113.4
	C686.5,483.2,719.2,443.3,719.2,399.5"/>
</svg>
