<?xml version="1.0" encoding="utf-8"?>
<!-- Generator: Adobe Illustrator 22.1.0, SVG Export Plug-In . SVG Version: 6.00 Build 0)  -->
<svg version="1.1" xmlns="http://www.w3.org/2000/svg" xmlns:xlink="http://www.w3.org/1999/xlink" x="0px" y="0px"
	 viewBox="0 0 800 800" style="enable-background:new 0 0 800 800;" xml:space="preserve">
<style type="text/css">
	.st0{display:none;}
	.st1{display:inline;opacity:0.5;fill:url(#SVGID_1_);enable-background:new    ;}
	.st2{display:inline;opacity:0.5;fill:#96C58B;}
	.st3{opacity:0.6;fill:#E9B130;}
</style>
<g id="Capa_1" class="st0">
	
		<linearGradient id="SVGID_1_" gradientUnits="userSpaceOnUse" x1="10" y1="397.5" x2="789" y2="397.5" gradientTransform="matrix(1 0 0 -1 0 800)">
		<stop  offset="0" style="stop-color:#5968B9"/>
		<stop  offset="1" style="stop-color:#5160B5"/>
	</linearGradient>
	<path class="st1" d="M399.5,792C184.8,792,10,617.3,10,402.5C10,187.8,184.8,13,399.5,13h260.7C731.3,13,789,70.7,789,141.8v260.7
		C789,617.3,614.3,792,399.5,792 M399.5,270.7c-72.7,0-131.9,59.1-131.9,131.9c0,72.7,59.2,131.8,131.9,131.8
		s131.8-59.2,131.8-131.8V270.7H399.5z"/>
</g>
<g id="Capa_2" class="st0">
	<path class="st2" d="M719.2,399.5c0-43.8-32.7-83.7-86.2-113.4c53.4-29.8,86.2-69.6,86.2-113.4C719.2,80.6,575.1,6,397.4,6
		C219.7,6,75.6,80.6,75.6,172.6c0,43.8,32.7,83.7,86.2,113.4c-53.4,29.7-86.2,69.6-86.2,113.4c0,43.8,32.7,83.7,86.2,113.4
		c-53.4,29.8-86.2,69.6-86.2,113.4c0,92,144.1,166.6,321.8,166.6c177.7,0,321.8-74.6,321.8-166.6c0-43.8-32.7-83.7-86.2-113.4
		C686.5,483.2,719.2,443.3,719.2,399.5"/>
</g>
<g id="Capa_3">
	<path class="st3" d="M482.5,59.9c-36.8-68.1-134.4-68.1-171.2,0L63.3,519.3c-36.8,68.1-17,153.6,46.9,197.1
		c67.8,46.1,171,75.6,286.7,75.6c115.7,0,218.9-29.4,286.7-75.6c64-43.5,83.7-129,46.9-197.1L482.5,59.9z"/>
</g>
</svg>
